<svg width="24" height="24" viewBox="0 0 24 24" fill="none" xmlns="http://www.w3.org/2000/svg">
<g opacity="0.8">
<path d="M17.3984 8.4C17.3984 6.96783 16.8295 5.59432 15.8168 4.58162C14.8041 3.56893 13.4306 3 11.9984 3C10.5663 3 9.19276 3.56893 8.18006 4.58162C7.16736 5.59432 6.59844 6.96783 6.59844 8.4C6.59844 14.7 3.89844 16.5 3.89844 16.5H20.0984C20.0984 16.5 17.3984 14.7 17.3984 8.4Z" stroke="white" stroke-width="1.5" stroke-linecap="round" stroke-linejoin="round"/>
<path d="M13.5603 20.1035C13.4022 20.3765 13.175 20.6032 12.9016 20.7607C12.6283 20.9183 12.3183 21.0012 12.0028 21.0012C11.6873 21.0012 11.3773 20.9183 11.104 20.7607C10.8306 20.6032 10.6035 20.3765 10.4453 20.1035" stroke="white" stroke-width="1.5" stroke-linecap="round" stroke-linejoin="round"/>
</g>
</svg>
