<svg width="24" height="24" viewBox="0 0 24 24" fill="none" xmlns="http://www.w3.org/2000/svg">
<g opacity="0.64">
<path d="M17.444 11.222C17.444 12.4526 17.0791 13.6556 16.3954 14.6788C15.7117 15.702 14.74 16.4995 13.6031 16.9704C12.4661 17.4413 11.2151 17.5645 10.0082 17.3244C8.8012 17.0844 7.69255 16.4918 6.82238 15.6216C5.95222 14.7515 5.35963 13.6428 5.11956 12.4359C4.87948 11.2289 5.0027 9.97787 5.47362 8.84094C5.94455 7.70402 6.74204 6.73228 7.76524 6.0486C8.78845 5.36491 9.99141 5 11.222 5C12.0391 5 12.8482 5.16094 13.6031 5.47362C14.3579 5.78631 15.0439 6.24462 15.6216 6.82238C16.1994 7.40015 16.6577 8.08606 16.9704 8.84094C17.2831 9.59583 17.444 10.4049 17.444 11.222Z" stroke="white" stroke-width="1.5" stroke-linecap="round" stroke-linejoin="round"/>
<path d="M19.0002 19.0002L15.6172 15.6172" stroke="white" stroke-width="1.5" stroke-linecap="round" stroke-linejoin="round"/>
</g>
</svg>
